<svg width="69" height="68" viewBox="0 0 69 68" fill="none" xmlns="http://www.w3.org/2000/svg">
<rect x="0.666672" width="68" height="68" rx="16" fill="#F7F7F7"/>
<path d="M38.4122 45.7163C38.4122 47.6871 36.7621 49.2883 34.7312 49.2883C32.7003 49.2883 31.0501 47.6871 31.0501 45.7163L38.4122 45.7163Z" stroke="black" stroke-linecap="round" stroke-linejoin="round"/>
<path d="M27.2916 39.2179C24.677 37.124 23 33.9567 23 30.3847C23 24.1029 28.2293 19 34.6667 19C41.1041 19 46.3333 24.1029 46.3333 30.3847C46.3333 33.7631 44.422 37.124 42.0417 39.2179" stroke="black" stroke-miterlimit="10" stroke-linecap="round"/>
<path d="M30.0833 40.6667L39.25 40.6667" stroke="black" stroke-linecap="round" stroke-linejoin="round"/>
<path d="M30.7441 43.2L38.7409 43.2" stroke="black" stroke-linecap="round" stroke-linejoin="round"/>
<path d="M33.679 33.6397L33.679 31.6514L31.8656 32.6543C31.7568 32.7071 31.648 32.7423 31.5211 32.7599C31.3942 32.7599 31.2854 32.7599 31.1584 32.7423C31.0496 32.7071 30.9227 32.6543 30.832 32.584C30.7414 32.5136 30.6507 32.4256 30.5963 32.32C30.4694 32.1265 30.4512 31.8801 30.5056 31.6514C30.5782 31.4226 30.7232 31.2291 30.9408 31.1235L32.7542 30.1205L30.9408 29.1175C30.832 29.0647 30.7414 28.9767 30.6688 28.8888C30.5963 28.8008 30.5419 28.6952 30.5056 28.572C30.4694 28.4665 30.4694 28.3433 30.4875 28.2377C30.4875 28.1145 30.5419 28.009 30.5963 27.9034C30.6507 27.7978 30.7414 27.7098 30.832 27.6394C30.9227 27.5691 31.0315 27.5163 31.1584 27.4811C31.2672 27.4459 31.3942 27.4459 31.5211 27.4635C31.648 27.4635 31.7568 27.5163 31.8656 27.5691L33.679 28.572L33.679 26.5661C33.679 26.3373 33.7696 26.1086 33.951 25.9502C34.1323 25.7919 34.368 25.6863 34.6038 25.6863C34.8395 25.6863 35.0752 25.7743 35.2566 25.9502C35.4379 26.1086 35.5286 26.3373 35.5286 26.5661L35.5286 28.572L37.3419 27.5691C37.5595 27.4459 37.8133 27.4283 38.0491 27.4811C38.2848 27.5339 38.4843 27.6922 38.6112 27.8858C38.6656 27.9914 38.72 28.0969 38.72 28.2201C38.72 28.3433 38.72 28.4489 38.7019 28.5544C38.6656 28.66 38.6112 28.7656 38.5387 28.8536C38.4661 28.9416 38.3755 29.0295 38.2667 29.0823L36.4533 30.0853L38.2667 31.0883C38.4843 31.2115 38.6293 31.405 38.7019 31.6162C38.7563 31.8449 38.7381 32.0737 38.6112 32.2848C38.4843 32.4784 38.2848 32.6367 38.0491 32.6895C37.8133 32.7423 37.5595 32.7247 37.3419 32.6015L35.5286 31.5986L35.5286 33.5869C35.5286 33.8157 35.4379 34.0444 35.2566 34.2028C35.0752 34.3612 34.8395 34.4667 34.6038 34.4667C34.368 34.4667 34.1323 34.3788 33.951 34.2028C33.7696 34.0444 33.679 33.8157 33.679 33.5869L33.679 33.6397ZM35.5286 29.6102L37.8133 28.3609L35.5467 29.6102L35.5286 29.6102Z" fill="#4DAC27"/>
</svg>
