<svg width="69" height="68" viewBox="0 0 69 68" fill="none" xmlns="http://www.w3.org/2000/svg">
<rect x="0.333344" width="68" height="68" rx="16" fill="#F7F7F7"/>
<path d="M42.7605 42.1006H45.514C46.6988 42.1006 47.6667 41.1006 47.6667 39.8506V28.6006C47.6667 26.0506 47.0159 24.0006 45.6976 22.4839C44.3792 20.9673 42.5269 20.2006 40.1239 20.2006C38.5386 20.2006 37.1869 20.6339 36.0689 21.4839C35.101 22.2339 34.3834 23.2006 33.9328 24.3673C33.5323 23.3506 32.8315 22.4673 31.8135 21.7339C30.8123 21.0006 29.6275 20.6173 28.2758 20.6173C26.0063 20.6173 24.2374 21.3673 22.9358 22.8839C21.6341 24.4006 21 26.4339 21 29.0173V37.4839V39.8339C21 41.0673 21.9679 42.0839 23.1527 42.0839H29.5774" stroke="black" stroke-linecap="round" stroke-linejoin="round"/>
<path d="M38.5 48.1667L38.5 40.6667" stroke="#4DAC27" stroke-width="1.5" stroke-linecap="round" stroke-linejoin="round"/>
<path d="M30.1667 35.6667L34.3333 31.5L38.5 35.6667" stroke="#4DAC27" stroke-width="1.5" stroke-linecap="round" stroke-linejoin="round"/>
<path d="M34.3333 31.5L34.3333 46.5" stroke="#4DAC27" stroke-width="1.5" stroke-linecap="round" stroke-linejoin="round"/>
</svg>
