<svg width="68" height="68" viewBox="0 0 68 68" fill="none" xmlns="http://www.w3.org/2000/svg">
<rect x="-6.10352e-05" width="68" height="68" rx="16" fill="#F7F7F7"/>
<path d="M30.6333 42.8274C29.7321 42.8274 28.9999 41.8007 28.9999 40.5357C28.9999 38.3244 30.2796 36.5318 31.8549 36.5318H32.1758C31.8352 36.1846 31.6048 35.7446 31.5133 35.2669C31.4219 34.7892 31.4738 34.2952 31.6621 33.8468C31.8504 33.3984 32.1674 33.0155 32.5724 32.7462C32.9775 32.477 33.4522 32.3333 33.9386 32.3333C34.425 32.3333 34.9011 32.477 35.3062 32.7462C35.7112 33.0155 36.0282 33.3984 36.2165 33.8468C36.4048 34.2952 36.4553 34.7892 36.3638 35.2669C36.2724 35.7446 36.042 36.1846 35.7014 36.5318H36.0195C37.5976 36.5318 38.8759 38.3244 38.8759 40.5357C38.8759 41.8049 38.145 42.8274 37.2453 42.8274H30.6333Z" fill="#4DAC27"/>
<path d="M20.6666 22.7371V45.5886C20.6666 47.4743 22.15 49 23.9833 49H44.0166C45.85 49 47.3333 47.4743 47.3333 45.5886V28.9943C47.3333 27.1086 45.85 25.5829 44.0166 25.5829H36.275H26.8666H24C22.1666 25.5829 20.6666 24.1086 20.6666 22.2914C20.6666 20.4743 22.15 19 24 19H44.8333" stroke="black" stroke-miterlimit="10" stroke-linecap="round"/>
</svg>
