<svg width="136" height="32" viewBox="0 0 136 32" fill="none" xmlns="http://www.w3.org/2000/svg">
<path d="M121.828 28.7996C123.66 30.0032 125.679 30.9125 127.806 31.4952H47.0166V31.4951L47.0081 31.4952C44.4759 31.5385 41.9478 31.287 39.4784 30.7468C37.1367 30.2136 34.9175 29.2714 32.9317 27.9667C28.6481 25.1483 24.8828 20.35 21.1012 12.7779C18.8166 7.99502 14.8635 4.13906 9.93539 1.87688L9.93539 1.87687L9.93245 1.87555C8.72698 1.33158 7.48321 0.878194 6.2122 0.517991H87.913H87.9289L87.9447 0.516988C88.0256 0.511856 88.2569 0.500058 88.6226 0.5C91.8611 0.535181 95.0615 1.17502 98.0463 2.38279C100.332 3.30878 102.439 4.5957 104.281 6.19038C106.531 8.1734 108.356 10.5597 109.654 13.2141L109.656 13.2176C113.469 20.8625 117.331 25.8412 121.828 28.7995L121.828 28.7996Z" fill="white" stroke="#D5D5D5"/>
</svg>
