<svg width="69" height="68" viewBox="0 0 69 68" fill="none" xmlns="http://www.w3.org/2000/svg">
<rect x="0.333336" width="68" height="68" rx="16" fill="#F7F7F7"/>
<path d="M50.1165 33.9914C50.1165 35.3295 48.298 36.4103 47.972 37.6455C47.6289 38.9322 48.6583 40.7679 48.0063 41.883C47.3544 43.0153 45.2271 43.0496 44.3179 43.976C43.3915 44.9024 43.3572 47.0125 42.2249 47.6644C41.1098 48.3163 39.257 47.287 37.9875 47.6301C36.7523 47.9561 35.6715 49.7746 34.3333 49.7746C32.9952 49.7746 31.9144 47.9561 30.6792 47.6301C29.3925 47.287 27.5569 48.3163 26.4418 47.6644C25.3095 47.0125 25.2752 44.8852 24.3488 43.976C23.4224 43.0496 21.3122 43.0153 20.6603 41.883C20.0084 40.7679 21.0377 38.9151 20.6946 37.6455C20.3687 36.4103 18.5502 35.3295 18.5502 33.9914C18.5502 32.6533 20.3687 31.5725 20.6946 30.3373C21.0377 29.0506 20.0084 27.2149 20.6603 26.0998C21.3122 24.9676 23.4395 24.9332 24.3488 24.0068C25.2752 23.0804 25.3095 20.9703 26.4418 20.3184C27.5569 19.6665 29.4097 20.6958 30.6792 20.3527C31.9144 20.0267 32.9952 18.2083 34.3333 18.2083C35.6715 18.2083 36.7523 20.0267 37.9875 20.3527C39.2741 20.6958 41.1098 19.6665 42.2249 20.3184C43.3572 20.9703 43.3915 23.0976 44.3179 24.0068C45.2443 24.9332 47.3544 24.9676 48.0063 26.0998C48.6583 27.2149 47.6289 29.0677 47.972 30.3373C48.298 31.5725 50.1165 32.6533 50.1165 33.9914Z" stroke="black" stroke-miterlimit="10"/>
<path d="M37.3262 30.1105C37.6567 29.4741 37.3875 29.1571 36.9837 29.0436C36.5559 28.9188 36.0295 29.1234 35.699 29.7699L31.3534 37.8813C31.0229 38.5177 31.304 38.8472 31.7212 38.9607C31.9947 39.0068 32.2767 38.9586 32.5153 38.8251C32.7539 38.6916 32.9328 38.4818 33.0191 38.2345L37.3262 30.1105ZM38.7561 38.9907C39.0504 39.0178 39.3476 38.9847 39.627 38.8937C39.9063 38.8028 40.1613 38.6561 40.3743 38.4639C40.5873 38.2717 40.7532 38.0386 40.8606 37.7805C40.9679 37.5224 41.0142 37.2455 40.9962 36.9691V35.846C41.0129 35.5699 40.9657 35.2936 40.8578 35.0362C40.7499 34.7788 40.584 34.5462 40.3713 34.3543C40.1586 34.1625 39.9041 34.016 39.6254 33.9247C39.3466 33.8334 39.0501 33.7996 38.7561 33.8256C38.4613 33.7994 38.164 33.833 37.8844 33.9241C37.6048 34.0152 37.3494 34.1616 37.1357 34.3535C36.9219 34.5453 36.7549 34.7781 36.6459 35.0358C36.5369 35.2936 36.4884 35.5703 36.5039 35.8472V36.9703C36.4875 37.2474 36.5353 37.5244 36.644 37.7825C36.7527 38.0407 36.9198 38.2737 37.1337 38.4656C37.3477 38.6576 37.6035 38.8039 37.8835 38.8945C38.1636 38.9851 38.4612 39.018 38.7561 38.9907ZM38.7561 37.4932C38.6847 37.4949 38.6138 37.4827 38.5478 37.4573C38.4818 37.4319 38.4221 37.394 38.3726 37.3459C38.3231 37.2977 38.2849 37.2405 38.2602 37.1778C38.2356 37.1151 38.2252 37.0482 38.2297 36.9816V35.8347C38.2264 35.7683 38.2377 35.702 38.2627 35.6397C38.2877 35.5775 38.3261 35.5207 38.3753 35.4728C38.4246 35.425 38.4838 35.387 38.5492 35.3612C38.6147 35.3355 38.6851 35.3225 38.7561 35.3231C38.8265 35.3228 38.8962 35.336 38.9608 35.362C39.0255 35.388 39.0838 35.4262 39.132 35.4742C39.1803 35.5222 39.2175 35.579 39.2413 35.641C39.2651 35.703 39.275 35.769 39.2705 35.8347V36.9816C39.2761 37.0475 39.2669 37.1138 39.2434 37.1762C39.22 37.2385 39.1828 37.2956 39.1343 37.3437C39.0858 37.3918 39.0271 37.4299 38.962 37.4554C38.8968 37.4809 38.8267 37.4946 38.7561 37.4932ZM29.9221 34.1762C30.2165 34.2033 30.5136 34.1702 30.793 34.0793C31.0724 33.9883 31.3274 33.8417 31.5403 33.6495C31.7533 33.4573 31.9192 33.2241 32.0266 32.966C32.134 32.7079 32.1803 32.4311 32.1623 32.1546V31.0315C32.1793 30.7552 32.1324 30.4787 32.0247 30.221C31.917 29.9632 31.7511 29.7303 31.5384 29.5382C31.3256 29.3461 31.0711 29.1993 30.7921 29.1079C30.5131 29.0165 30.2164 28.9826 29.9221 29.0086C29.6274 28.9824 29.3301 29.016 29.0504 29.1071C28.7708 29.1982 28.5154 29.3447 28.3017 29.5365C28.088 29.7284 27.9209 29.9611 27.8119 30.2189C27.7029 30.4767 27.6545 30.7534 27.67 31.0303V32.1534C27.6532 32.4306 27.7006 32.708 27.8092 32.9664C27.9177 33.2248 28.0847 33.4581 28.2987 33.6504C28.5127 33.8426 28.7686 33.9891 29.0489 34.0799C29.3291 34.1707 29.627 34.2035 29.9221 34.1762ZM29.9221 32.6788C29.8508 32.6804 29.7799 32.6682 29.7138 32.6428C29.6478 32.6175 29.5882 32.5795 29.5387 32.5314C29.4892 32.4833 29.4509 32.4261 29.4263 32.3633C29.4017 32.3006 29.3913 32.2338 29.3957 32.1671V31.0203C29.3925 30.9539 29.4037 30.8875 29.4287 30.8253C29.4538 30.7631 29.4921 30.7063 29.5414 30.6584C29.5906 30.6105 29.6498 30.5725 29.7153 30.5468C29.7807 30.521 29.8511 30.5081 29.9221 30.5086C29.9925 30.5083 30.0622 30.5216 30.1269 30.5476C30.1916 30.5736 30.2498 30.6117 30.2981 30.6597C30.3463 30.7077 30.3835 30.7645 30.4073 30.8265C30.4312 30.8886 30.4411 30.9545 30.4365 31.0203V32.1671C30.4419 32.2329 30.4326 32.2991 30.409 32.3613C30.3855 32.4236 30.3483 32.4805 30.2998 32.5284C30.2514 32.5764 30.1927 32.6143 30.1277 32.6398C30.0626 32.6652 29.9926 32.6777 29.9221 32.6763V32.6788Z" fill="#4DAC27"/>
</svg>
