<svg width="69" height="68" viewBox="0 0 69 68" fill="none" xmlns="http://www.w3.org/2000/svg">
<rect x="0.333313" width="68" height="68" rx="16" fill="#F7F7F7"/>
<path d="M31.2387 39.8843C30.7201 39.6629 30.2494 39.343 29.852 38.9429C29.4592 38.5435 29.1497 38.0704 28.9418 37.5503C28.7209 37.0109 28.6087 36.432 28.6118 35.8491V35.8198C28.6085 35.2327 28.7207 34.6488 28.9418 34.105C29.151 33.5811 29.4602 33.1046 29.852 32.6987C30.2459 32.2925 30.7173 31.9695 31.2387 31.7495C32.4473 31.2723 33.794 31.2836 34.9946 31.7808C35.5203 32.0331 35.9902 32.3877 36.3774 32.8237L34.9164 34.4097C34.6702 34.1445 34.3882 33.9134 34.0786 33.7261C33.7496 33.5452 33.3776 33.4569 33.0024 33.4702C32.7168 33.466 32.4342 33.5312 32.1782 33.6577C31.9322 33.7783 31.7143 33.9485 31.5375 34.1577C31.3524 34.3758 31.2077 34.6233 31.1098 34.8921C31.0114 35.1819 30.9615 35.4864 30.9633 35.7925V35.8237C30.9621 36.1363 31.0119 36.4469 31.1098 36.7437C31.2057 37.0153 31.3526 37.2661 31.5434 37.4819C31.7312 37.6941 31.9613 37.8644 32.2192 37.9819C32.5252 38.1123 32.8555 38.173 33.1879 38.1616C33.5203 38.1502 33.8466 38.0665 34.143 37.9155C34.4651 37.7358 34.7628 37.5158 35.0297 37.2612L36.4301 38.6851C36.0272 39.1315 35.554 39.5095 35.0297 39.8042C34.397 40.1171 33.696 40.2685 32.9907 40.2417C32.3879 40.245 31.7921 40.123 31.2387 39.8843ZM47.6 39.894C46.9555 39.6744 46.3534 39.3456 45.8207 38.9214L46.8383 37.3354C47.2594 37.65 47.7213 37.9054 48.2114 38.0952C48.6184 38.2555 49.0513 38.3414 49.4887 38.3491C49.7541 38.3681 50.0189 38.3084 50.2504 38.1772C50.3262 38.1262 50.3875 38.0569 50.4301 37.9761C50.4727 37.8953 50.4953 37.8057 50.4946 37.7144V37.6851C50.4947 37.6228 50.4817 37.5608 50.4575 37.5034C50.4332 37.446 50.3987 37.3944 50.3539 37.3511C50.2409 37.2473 50.1108 37.164 49.9692 37.105C49.7873 37.0283 49.5997 36.9623 49.4106 36.9058C49.1996 36.8438 48.9825 36.7747 48.7485 36.6987C48.4615 36.6147 48.1647 36.5109 47.8637 36.3979C47.5739 36.2762 47.3027 36.1155 47.0571 35.9194C46.8135 35.7201 46.6129 35.4738 46.4672 35.1948C46.3074 34.8711 46.2311 34.5126 46.2446 34.1519V34.1206C46.2342 33.7241 46.316 33.3301 46.4828 32.9702C46.6422 32.6446 46.8678 32.3562 47.145 32.1226C47.4295 31.8856 47.7589 31.7072 48.1137 31.6011C48.5023 31.4809 48.9062 31.4212 49.3129 31.4233C49.8643 31.4273 50.4118 31.5161 50.936 31.687C51.4721 31.8538 51.9815 32.0976 52.4496 32.4077L51.5414 34.0737C51.1512 33.843 50.7409 33.6487 50.3149 33.4937C49.9795 33.3624 49.6241 33.2905 49.2641 33.2808C49.0323 33.2638 48.8011 33.3227 48.6059 33.4487C48.5381 33.4948 48.4839 33.5559 48.4457 33.6284C48.4076 33.701 48.3867 33.7828 48.3871 33.8647V33.896C48.3874 33.9545 48.4007 34.0124 48.4243 34.0659C48.4478 34.1194 48.4809 34.1689 48.5239 34.2085C48.6372 34.3106 48.7648 34.3955 48.9028 34.4604C49.0802 34.5474 49.262 34.6233 49.4477 34.6909C49.6477 34.7609 49.8641 34.8376 50.0961 34.9136C50.3888 35.0096 50.6867 35.1221 50.9907 35.2515C51.2814 35.378 51.5559 35.5384 51.8071 35.7319C52.0481 35.9245 52.249 36.1634 52.3989 36.4331C52.5658 36.7372 52.6489 37.0805 52.6391 37.4272V37.4624C52.6495 37.8829 52.5667 38.3002 52.3969 38.6851C52.2405 39.0193 52.0055 39.31 51.7114 39.5327C51.4047 39.7632 51.0564 39.9329 50.686 40.0327C50.2728 40.145 49.8466 40.2002 49.4184 40.1968C48.8002 40.1947 48.1859 40.0933 47.6 39.896V39.894ZM42.9985 40.0405L40.7993 36.5757L39.9692 37.4644V40.0405H37.5864V28.4839H39.9692V34.644L42.7621 31.5562H45.6137L42.4145 34.8979L45.725 40.0425L42.9985 40.0405ZM14.8403 40.0405V28.9585H19.3266C19.9266 28.9487 20.5255 29.0402 21.0942 29.2319C21.5822 29.3989 22.0284 29.6665 22.4067 30.0171C22.7696 30.3563 23.0548 30.77 23.2426 31.23C23.4384 31.7254 23.5354 32.2559 23.5278 32.7886V32.8198C23.5397 33.4043 23.4245 33.9836 23.1899 34.519C22.9677 34.9911 22.6418 35.4069 22.2368 35.7358C21.8188 36.0734 21.3382 36.3251 20.8227 36.4761C20.2608 36.6402 19.6795 36.7219 19.0942 36.7183H17.2582V40.0425L14.8403 40.0405ZM17.2582 34.5405H19.1684C19.6846 34.5736 20.193 34.4006 20.5825 34.0601C20.744 33.9072 20.8733 33.7222 20.9594 33.5171C21.0455 33.312 21.0865 33.091 21.0825 32.8687V32.8335C21.0968 32.5983 21.0567 32.3631 20.9653 32.146C20.8739 31.9289 20.7353 31.7357 20.5571 31.5815C20.1435 31.2745 19.6338 31.1227 19.1196 31.1519H17.2524L17.2582 34.5405Z" fill="black"/>
<path d="M24.7793 40.0475V31.5573H27.1641V40.0475H24.7793ZM25.4336 31.153L25.8672 29.8991L26.3262 30.1666L25.4766 31.1783C25.4566 31.2033 25.4397 31.2174 25.4297 31.2174C25.4197 31.2174 25.4186 31.194 25.4316 31.153H25.4336ZM26.3887 30.0084L25.9238 29.7448L24.9785 29.1998C25.0796 29.0307 25.2228 28.8902 25.3945 28.7936C25.5662 28.6969 25.76 28.6458 25.957 28.6471L26.7285 27.2721L26.4805 27.1315C26.4543 27.1147 26.4357 27.0892 26.4277 27.0592C26.4198 27.0292 26.4231 26.9969 26.4375 26.9694L26.5117 26.8366C26.5193 26.8233 26.5289 26.8126 26.541 26.8033C26.5531 26.7941 26.5673 26.7876 26.582 26.7838C26.5968 26.78 26.6119 26.7777 26.627 26.7799C26.642 26.7821 26.6569 26.7877 26.6699 26.7955L27.5996 27.3307L28.5312 27.8658C28.5562 27.8826 28.5748 27.9089 28.582 27.9381C28.5892 27.9673 28.5846 27.9976 28.5703 28.0241L28.498 28.1569C28.4818 28.183 28.4574 28.2013 28.4277 28.2096C28.3981 28.2179 28.3654 28.2157 28.3379 28.2018L28.082 28.0553L27.3086 29.4303C27.4086 29.6001 27.4647 29.7938 27.4688 29.9908C27.4728 30.1879 27.425 30.3815 27.332 30.5553L26.3887 30.0084Z" fill="black"/>
</svg>
