<svg width="68" height="68" viewBox="0 0 68 68" fill="none" xmlns="http://www.w3.org/2000/svg">
<rect width="68" height="68" rx="16" fill="#F7F7F7"/>
<path d="M49 34C49 42.2845 42.2845 49 34 49C25.7155 49 19 42.2845 19 34C19 25.7155 25.7155 19 34 19C42.2845 19 49 25.7155 49 34Z" stroke="black" stroke-linecap="round" stroke-linejoin="round"/>
<path d="M25.75 39.985C26.3465 40.844 27.0697 41.6077 27.895 42.25M40.039 25.75C40.8925 26.41 41.6395 27.208 42.25 28.1095M37.75 34C37.75 33.0054 37.3549 32.0516 36.6517 31.3483C35.9484 30.6451 34.9946 30.25 34 30.25C33.0054 30.25 32.0516 30.6451 31.3483 31.3483C30.6451 32.0516 30.25 33.0054 30.25 34C30.25 34.9946 30.6451 35.9484 31.3483 36.6517C32.0516 37.3549 33.0054 37.75 34 37.75C34.9946 37.75 35.9484 37.3549 36.6517 36.6517C37.3549 35.9484 37.75 34.9946 37.75 34Z" stroke="#4DAC27" stroke-width="2" stroke-linecap="round" stroke-linejoin="round"/>
</svg>
