<svg width="69" height="68" viewBox="0 0 69 68" fill="none" xmlns="http://www.w3.org/2000/svg">
<rect x="0.666687" width="68" height="68" rx="16" fill="#F7F7F7"/>
<path d="M23.9036 40.3454C23.6733 40.1225 23.4948 39.8518 23.3808 39.5523C23.2667 39.2528 23.22 38.9319 23.2437 38.6123C23.2683 38.3805 23.3798 38.1665 23.5559 38.0139C23.732 37.8612 23.9596 37.781 24.1925 37.7896H30.5198V37.2042H24.182H24.1428H23.2295V36.3511C23.2295 36.3444 23.2295 36.3367 23.2295 36.331C23.2406 36.0884 23.3476 35.8601 23.527 35.6964C23.7063 35.5326 23.9434 35.4467 24.186 35.4576H31.3215C31.5535 35.4486 31.7804 35.5276 31.9567 35.6787C32.133 35.8298 32.2456 36.0419 32.2722 36.2726V38.6639C32.2668 38.784 32.2377 38.902 32.1867 39.0109C32.1357 39.1198 32.0638 39.2176 31.9749 39.2987C31.8861 39.3798 31.7821 39.4426 31.669 39.4835C31.5559 39.5245 31.4359 39.5427 31.3157 39.5371H25.6875C26.2122 39.8116 26.7762 40.0029 27.3596 40.1044C28.9796 40.3809 30.6269 40.4644 32.2666 40.3531V42.1016C31.751 42.1236 31.2546 42.136 30.7821 42.136C27.3185 42.1351 25.0065 41.5353 23.9036 40.3454ZM52.5197 40.3062C52.8275 40.2901 53.129 40.2116 53.4057 40.0756C53.6824 39.9397 53.9287 39.749 54.1296 39.5152C54.6023 38.8474 54.8561 38.0492 54.8556 37.231H47.6521V36.3242C47.6752 36.0861 47.7888 35.866 47.9697 35.7094C48.1506 35.5529 48.3848 35.4721 48.6238 35.4835H55.6648C55.8887 35.4744 56.1086 35.5452 56.285 35.6833C56.4615 35.8214 56.5831 36.0177 56.6281 36.2372C56.6281 36.2372 56.6281 36.2486 56.6281 36.2592C56.6281 36.2697 56.6281 36.2725 56.6281 36.2802C56.7987 37.825 56.4003 39.3791 55.5078 40.6515C55.1385 41.0901 54.6811 41.446 54.1651 41.6962C53.6491 41.9463 53.0863 42.0851 52.5131 42.1035L52.5197 40.3062ZM41.12 37.7562V37.2186H34.2847V36.7958H41.123V36.6676H34.2847L34.3422 36.0765L41.12 36.0641H42.7079V28.0083L42.792 28.0007L43.3132 27.9567V35.7044C43.2875 35.7535 43.2714 35.8071 43.2656 35.8623C43.2656 35.8757 43.2656 35.8909 43.2656 35.9053C43.2641 35.9778 43.2807 36.0495 43.3142 36.1138V36.2162C43.3248 36.3244 43.3012 36.4331 43.2464 36.527C43.2105 36.5684 43.1664 36.6021 43.1171 36.6261C43.0677 36.6501 43.0142 36.6639 42.9594 36.6667H42.7969C42.7477 36.6403 42.6937 36.624 42.6381 36.6188H42.5949C42.5217 36.6173 42.4493 36.6344 42.3845 36.6685H42.0975V36.7967H42.395L42.4055 36.7881C42.4501 36.7502 42.5052 36.7269 42.5634 36.7212H42.5921C42.6526 36.7212 42.7115 36.7403 42.7605 36.7757C42.7703 36.7822 42.7797 36.7896 42.7883 36.7977H42.9882C43.05 36.7962 43.1108 36.7819 43.1668 36.7555C43.2228 36.7292 43.2726 36.6914 43.3132 36.6447C43.3854 36.5653 43.4298 36.4645 43.4396 36.3577V36.1033L43.4309 36.0937C43.3932 36.0494 43.3698 35.9948 43.3639 35.9369C43.3632 35.9273 43.3632 35.9177 43.3639 35.9082C43.3641 35.8504 43.382 35.794 43.4148 35.7465C43.4229 35.735 43.4317 35.7242 43.4414 35.714V27.9547H43.8681V35.7857C43.8376 35.7972 43.8114 35.8176 43.7926 35.8442C43.7739 35.8708 43.7633 35.9024 43.7628 35.9349C43.7629 35.9637 43.7711 35.9919 43.7861 36.0165C43.8011 36.0411 43.8225 36.0612 43.848 36.0746C43.8543 36.0782 43.8611 36.0811 43.8681 36.0832V36.2104C43.8874 36.4713 43.8024 36.7293 43.6317 36.9277C43.5507 37.0172 43.4521 37.089 43.3419 37.1384C43.2318 37.1878 43.1126 37.2137 42.9919 37.2147H42.7481C42.738 37.1824 42.7177 37.1541 42.6904 37.1341C42.6631 37.114 42.6302 37.1031 42.5963 37.1031C42.5624 37.1031 42.5295 37.114 42.5022 37.1341C42.4749 37.1541 42.4548 37.1824 42.4447 37.2147H42.0984V38.023L41.5945 37.7494L41.123 38.024L41.12 37.7562ZM20.3464 37.231V36.3166C20.3464 36.3061 20.3464 36.2955 20.3464 36.285V28.8242C20.3464 28.5917 20.4388 28.3687 20.6032 28.2043C20.7676 28.0399 20.9905 27.9476 21.223 27.9476C21.4555 27.9476 21.6786 28.0399 21.843 28.2043C22.0074 28.3687 22.0997 28.5917 22.0997 28.8242V36.285C22.1033 36.5249 22.0142 36.757 21.851 36.9329C21.6877 37.1087 21.463 37.2148 21.2235 37.2291H21.2034L20.3464 37.231ZM42.5501 35.9358H34.3632C34.4302 35.7976 34.5344 35.6808 34.6642 35.5985C34.794 35.5162 34.9442 35.4718 35.0978 35.4701H41.8163C41.9865 35.4702 42.1522 35.5248 42.289 35.626C42.1788 35.4934 42.1178 35.3268 42.1166 35.1545V28.7334C42.1199 28.5845 42.1654 28.4396 42.2476 28.3155C42.3299 28.1914 42.4457 28.0932 42.5816 28.0322V35.9378L42.5501 35.9358ZM42.3109 35.649C42.3042 35.6413 42.2975 35.6336 42.2908 35.625L42.3109 35.649ZM45.3764 34.6542C45.2949 34.5722 45.2306 34.475 45.1868 34.3681C45.143 34.2611 45.1208 34.1465 45.1214 34.031C45.122 33.9154 45.1456 33.8012 45.1905 33.6947C45.2354 33.5883 45.3008 33.4917 45.3832 33.4106L48.8638 29.9405H45.9733C45.7466 29.933 45.5316 29.8376 45.3738 29.6746C45.2161 29.5116 45.1279 29.2936 45.1279 29.0667C45.1279 28.8399 45.2161 28.6218 45.3738 28.4588C45.5316 28.2957 45.7466 28.2004 45.9733 28.1929H50.995C51.2103 28.1956 51.4168 28.279 51.5737 28.4265C51.7305 28.574 51.8264 28.7749 51.8424 28.9897C51.8424 28.9973 51.8424 29.0031 51.8424 29.0098C51.8424 29.0165 51.8424 29.047 51.8424 29.0662C51.8424 29.1828 51.8195 29.2984 51.7747 29.4061C51.7299 29.5137 51.6641 29.6114 51.5814 29.6936L49.6971 31.5722C50.1828 31.7382 50.6214 32.0188 50.9758 32.3901C51.5886 33.074 51.9079 33.9713 51.8646 34.8885H50.1092C50.1451 34.4146 49.9952 33.9453 49.6912 33.5799C49.279 33.2193 48.741 33.0361 48.1943 33.0702L47.8863 33.3772L47.8721 33.3887L46.6162 34.6407C46.5336 34.7235 46.4356 34.7893 46.3275 34.8341C46.2195 34.8789 46.1038 34.9019 45.9868 34.9019C45.7606 34.9027 45.543 34.8152 45.3804 34.658L45.3764 34.6542ZM55.6543 34.8933H54.7982V31.5637H54.2108V34.0104C54.2114 34.126 54.189 34.2404 54.1452 34.3473C54.1015 34.4542 54.0372 34.5515 53.9558 34.6335C53.8745 34.7155 53.7777 34.7806 53.6712 34.8252C53.5646 34.8698 53.4502 34.8929 53.3347 34.8933H52.4585V28.8012C52.4585 28.6862 52.4812 28.5723 52.5253 28.466C52.5693 28.3597 52.6338 28.263 52.7151 28.1817C52.7965 28.1003 52.893 28.0359 52.9993 27.9918C53.1056 27.9478 53.2196 27.925 53.3347 27.925C53.4497 27.925 53.5637 27.9478 53.67 27.9918C53.7763 28.0359 53.8728 28.1003 53.9542 28.1817C54.0356 28.263 54.1 28.3597 54.1441 28.466C54.1881 28.5723 54.2108 28.6862 54.2108 28.8012V29.8171H54.7982V28.8012C54.7982 28.5688 54.8905 28.346 55.0548 28.1817C55.2191 28.0174 55.442 27.925 55.6743 27.925C55.9067 27.925 56.1296 28.0174 56.2939 28.1817C56.4582 28.346 56.5505 28.5688 56.5505 28.8012V34.0104C56.551 34.126 56.5287 34.2404 56.4849 34.3473C56.4411 34.4542 56.3769 34.5515 56.2955 34.6335C56.2141 34.7155 56.1172 34.7806 56.0106 34.8252C55.9041 34.8698 55.7899 34.8929 55.6743 34.8933H55.6543ZM31.3589 34.8818H30.5028V28.7994C30.5028 28.6843 30.5253 28.5703 30.5693 28.464C30.6134 28.3577 30.6781 28.2612 30.7594 28.1798C30.8408 28.0985 30.9373 28.0339 31.0436 27.9898C31.1499 27.9458 31.2639 27.9232 31.379 27.9232C31.494 27.9232 31.6078 27.9458 31.7141 27.9898C31.8204 28.0339 31.9172 28.0985 31.9985 28.1798C32.0799 28.2612 32.1443 28.3577 32.1884 28.464C32.2324 28.5703 32.2549 28.6843 32.2549 28.7994V29.8161H33.1159C33.3368 29.8137 33.5506 29.8937 33.7156 30.0405C33.8806 30.1873 33.9849 30.3903 34.0082 30.61C34.0197 30.7314 34.0058 30.8539 33.9671 30.9695C33.9285 31.0851 33.866 31.1913 33.7838 31.2814C33.7017 31.3714 33.6016 31.4434 33.49 31.4925C33.3784 31.5416 33.2579 31.5668 33.136 31.5665H32.254V34.0027C32.2544 34.1182 32.2322 34.2326 32.1884 34.3394C32.1445 34.4462 32.0801 34.5433 31.9987 34.6252C31.9174 34.7071 31.8206 34.7722 31.7141 34.8167C31.6076 34.8612 31.4932 34.8843 31.3778 34.8846L31.3589 34.8818ZM24.1045 34.8818C24.0699 34.8815 24.0355 34.8792 24.0012 34.8751H23.236V29.026C23.2355 28.9116 23.2576 28.7983 23.3009 28.6925C23.3443 28.5867 23.4081 28.4905 23.4887 28.4094C23.5692 28.3283 23.665 28.2639 23.7705 28.2199C23.876 28.1758 23.9892 28.153 24.1035 28.1527H29.0489C29.2805 28.1527 29.5025 28.2448 29.6663 28.4086C29.8301 28.5723 29.922 28.7944 29.922 29.026C29.922 29.2576 29.8301 29.4798 29.6663 29.6435C29.5025 29.8073 29.2805 29.8994 29.0489 29.8994H24.9884V33.1343H29.0489C29.2805 33.1343 29.5025 33.2263 29.6663 33.3901C29.8301 33.5539 29.922 33.7759 29.922 34.0075C29.922 34.2391 29.8301 34.4613 29.6663 34.6251C29.5025 34.7889 29.2805 34.8809 29.0489 34.8809L24.1045 34.8818ZM34.6971 31.511C34.6958 30.8473 34.8914 30.1981 35.2592 29.6455C35.627 29.093 36.1503 28.6621 36.7631 28.4072C37.3759 28.1522 38.0507 28.0849 38.7018 28.2136C39.353 28.3422 39.9512 28.6612 40.421 29.13C40.8908 29.5989 41.2111 30.1966 41.3411 30.8475C41.4711 31.4984 41.4049 32.1732 41.1513 32.7865C40.8976 33.3999 40.4677 33.9241 39.9159 34.293C39.3641 34.6619 38.7152 34.8588 38.0515 34.8588C37.1634 34.8596 36.3113 34.5081 35.6821 33.8814C35.0529 33.2547 34.6978 32.4039 34.695 31.5158L34.6971 31.511ZM36.3995 31.511C36.3986 31.838 36.4948 32.1578 36.6758 32.4301C36.8567 32.7024 37.1143 32.9149 37.416 33.0406C37.7178 33.1664 38.0502 33.1998 38.3709 33.1366C38.6917 33.0734 38.9864 32.9164 39.2179 32.6855C39.4494 32.4547 39.6073 32.1604 39.6714 31.8398C39.7355 31.5193 39.7031 31.187 39.5782 30.8848C39.4533 30.5827 39.2414 30.3244 38.9697 30.1427C38.6979 29.961 38.3784 29.864 38.0515 29.864C37.8343 29.8636 37.6193 29.9061 37.4186 29.9889C37.2179 30.0718 37.0356 30.1934 36.882 30.3468C36.7283 30.5002 36.6064 30.6825 36.5233 30.8831C36.4402 31.0837 36.3975 31.2987 36.3976 31.5158L36.3995 31.511ZM12.6667 31.511C12.6654 30.8473 12.861 30.1981 13.2288 29.6455C13.5966 29.093 14.12 28.6619 14.7329 28.407C15.3458 28.1521 16.0205 28.0848 16.6716 28.2136C17.3228 28.3423 17.9213 28.6614 18.3911 29.1304C18.8608 29.5993 19.1808 30.1971 19.3107 30.8481C19.4406 31.499 19.3744 32.1738 19.1206 32.7871C18.8668 33.4005 18.4367 33.9247 17.8848 34.2935C17.3329 34.6623 16.6839 34.859 16.0201 34.8588C15.1326 34.8588 14.2813 34.5069 13.6529 33.8803C13.0244 33.2536 12.6702 32.4033 12.6676 31.5158L12.6667 31.511ZM14.3691 31.511C14.3681 31.838 14.4644 32.1578 14.6453 32.4301C14.8263 32.7024 15.0839 32.9149 15.3856 33.0406C15.6874 33.1664 16.0197 33.1998 16.3405 33.1366C16.6612 33.0734 16.956 32.9164 17.1875 32.6855C17.419 32.4547 17.5769 32.1604 17.641 31.8398C17.7051 31.5193 17.6725 31.187 17.5476 30.8848C17.4227 30.5827 17.211 30.3244 16.9392 30.1427C16.6675 29.961 16.348 29.864 16.021 29.864C15.8039 29.8637 15.5891 29.9063 15.3884 29.9892C15.1878 30.0721 15.0054 30.1936 14.8518 30.347C14.6982 30.5005 14.5762 30.6827 14.4931 30.8832C14.4099 31.0837 14.3672 31.2987 14.3672 31.5158L14.3691 31.511ZM47.6042 26.7485C47.6037 26.574 47.6548 26.4033 47.7513 26.2579C47.8479 26.1125 47.9854 25.999 48.1465 25.9318C48.3075 25.8646 48.4848 25.8467 48.656 25.8803C48.8272 25.9139 48.9847 25.9976 49.1083 26.1207C49.232 26.2438 49.3164 26.4009 49.3507 26.572C49.3851 26.7431 49.368 26.9206 49.3015 27.0819C49.235 27.2432 49.1221 27.3812 48.9771 27.4783C48.8321 27.5755 48.6617 27.6275 48.4872 27.6276C48.3714 27.6282 48.2566 27.6058 48.1495 27.5619C48.0424 27.518 47.9449 27.4535 47.8627 27.3719C47.7806 27.2904 47.7152 27.1935 47.6705 27.0867C47.6259 26.9799 47.6027 26.8653 47.6024 26.7495L47.6042 26.7485Z" fill="#070203"/>
</svg>
