<svg width="69" height="68" viewBox="0 0 69 68" fill="none" xmlns="http://www.w3.org/2000/svg">
<rect x="0.5" width="68" height="68" rx="16" fill="#F7F7F7"/>
<path d="M22.8167 43.4707L21.1667 45.1207" stroke="black" stroke-linecap="round" stroke-linejoin="round"/>
<path d="M44.3838 26.2876L40.0005 21.9043L37.8838 24.021L39.6505 25.771" stroke="black" stroke-linecap="round" stroke-linejoin="round"/>
<path d="M28.8505 41.6043L23.8338 43.7543C23.1338 43.9876 22.3338 43.2709 22.4838 42.5376L24.7338 37.4043L25.0005 36.9376L42.5505 19.3709C43.1005 18.8209 44.0838 18.8876 44.7171 19.5376L46.7671 21.5876C47.4171 22.2376 47.4838 23.2209 46.9338 23.7709L29.3505 41.3209L28.8505 41.6043Z" stroke="black" stroke-miterlimit="10"/>
<path d="M21.7168 47.3918C21.7168 47.3918 26.0328 50.2212 30.0067 47.6219C30.0067 47.6219 33.8992 44.5488 38.5898 47.6219C38.5898 47.6219 42.4986 50.2618 46.7168 47.4865" stroke="#4DAC27" stroke-width="1.5" stroke-miterlimit="10" stroke-linecap="round"/>
</svg>
