<svg width="68" height="68" viewBox="0 0 68 68" fill="none" xmlns="http://www.w3.org/2000/svg">
<rect width="68" height="68" rx="16" fill="#F7F7F7"/>
<path d="M47.3333 34L35.6667 45.8975C34.8747 46.7008 33.1253 46.7008 32.3333 45.8975L18.5392 31.7519C18.0425 31.2617 18.0425 30.4449 18.5392 29.9547L26.5491 22.099C26.925 21.7178 27.4351 21.5 27.972 21.5H40.5637C41.1543 21.5 41.7315 21.7451 42.1477 22.1671L47.2385 27.3935" stroke="black" stroke-linecap="round" stroke-linejoin="round"/>
<path d="M19 30.6667H44.8333" stroke="black" stroke-linecap="round" stroke-linejoin="round"/>
<path d="M40.6667 22.1231V31.5L33.9938 21.5L27.3333 31.5V22.1231" stroke="black" stroke-linecap="round" stroke-linejoin="round"/>
<path d="M27.3333 31.5L33.1277 45.8899C33.4517 46.7034 34.5358 46.7034 34.8723 45.8899L40.6667 31.5" stroke="black" stroke-linecap="round" stroke-linejoin="round"/>
<path d="M49 32.3333C49.9205 32.3333 50.6667 31.5871 50.6667 30.6667C50.6667 29.7462 49.9205 29 49 29C48.0795 29 47.3333 29.7462 47.3333 30.6667C47.3333 31.5871 48.0795 32.3333 49 32.3333Z" fill="#4DAC27"/>
</svg>
