<svg width="69" height="68" viewBox="0 0 69 68" fill="none" xmlns="http://www.w3.org/2000/svg">
<rect x="0.666626" width="68" height="68" rx="16" fill="#F7F7F7"/>
<path d="M46.3164 34.831C47.4831 34.831 48.4331 33.881 48.4331 32.7144C48.4331 31.5477 47.4831 30.5977 46.3164 30.5977H41.9664H36.8664H38.0664L39.8664 26.9977C41.5997 23.231 39.7331 21.2144 39.7331 21.2144C38.0331 19.731 37.2664 21.731 37.2664 21.731C36.5497 23.731 36.1497 24.4144 36.1497 24.4144C34.9664 26.381 33.5331 27.4977 33.5331 27.4977C31.2331 29.7644 28.8331 31.2477 28.8331 31.2477L28.8497 31.231V43.531C29.7664 44.3144 30.2997 44.5477 31.4831 45.0477C33.8664 45.8144 35.9997 45.931 35.9997 45.931M46.3164 34.831H41.8997M46.3164 34.831C47.4831 34.831 48.4331 35.781 48.4331 36.9477C48.4331 38.1144 47.4831 39.0644 46.3164 39.0644H41.9664H45.7331C46.6831 39.0644 47.4497 39.831 47.4497 40.781C47.4497 41.731 46.6831 42.4977 45.7331 42.4977H42.1331H44.0831C45.0331 42.4977 45.7997 43.2644 45.7997 44.2144C45.7997 45.1644 45.0331 45.931 44.0831 45.931H35.9997M35.9997 45.931H37.5497" stroke="black" stroke-linecap="round" stroke-linejoin="round"/>
<path d="M20.9001 28.4143H26.0001C27.5668 28.4143 28.8335 29.681 28.8335 31.2476V42.5976C28.8335 44.1643 27.5668 45.431 26.0001 45.431H20.9001V28.4143Z" stroke="black" stroke-linecap="round" stroke-linejoin="round"/>
<path d="M24.6666 43.1666C25.5871 43.1666 26.3333 42.4204 26.3333 41.4999C26.3333 40.5794 25.5871 39.8333 24.6666 39.8333C23.7461 39.8333 22.9999 40.5794 22.9999 41.4999C22.9999 42.4204 23.7461 43.1666 24.6666 43.1666Z" fill="#4DAC27"/>
</svg>
